<?xml version="1.0" standalone="no"?>
<!DOCTYPE svg PUBLIC "-//W3C//DTD SVG 20010904//EN"
 "http://www.w3.org/TR/2001/REC-SVG-20010904/DTD/svg10.dtd">
<svg version="1.0" xmlns="http://www.w3.org/2000/svg"
 width="1452.000000pt" height="1452.000000pt" viewBox="0 0 1452.000000 1452.000000"
 preserveAspectRatio="xMidYMid meet">
<metadata>
Created by potrace 1.14, written by Peter Selinger 2001-2017
</metadata>
<g transform="translate(0.000000,1452.000000) scale(0.100000,-0.100000)"
fill="#000000" stroke="none">
<path d="M3264 10263 c4 -2342 8 -4665 11 -5163 2 -498 6 -1760 10 -2805 4
-1045 7 -1988 8 -2095 l2 -195 125 0 c111 0 169 5 235 18 21 5 114 18 155 22
14 2 39 5 55 8 17 3 53 8 80 11 28 4 68 8 90 11 111 13 285 31 390 40 141 12
386 29 590 40 50 3 122 7 160 10 39 2 124 7 190 11 66 3 140 7 165 9 25 2 97
6 160 10 63 3 131 8 150 10 19 2 78 7 130 11 52 4 104 8 115 10 11 1 28 3 37
3 15 1 16 211 15 3076 -1 1691 0 3075 3 3075 4 0 11 -15 17 -32 7 -18 42 -118
79 -223 36 -104 93 -266 126 -360 32 -93 66 -188 74 -210 8 -22 20 -56 25 -75
6 -19 14 -44 19 -55 5 -11 24 -60 41 -110 64 -186 235 -671 334 -950 31 -88
58 -164 59 -170 2 -5 6 -17 9 -25 10 -28 58 -165 77 -220 10 -30 43 -125 73
-210 100 -281 168 -473 207 -585 21 -60 66 -189 100 -285 33 -96 78 -224 100
-285 21 -60 61 -175 90 -255 28 -80 57 -163 65 -185 7 -22 40 -118 74 -213 87
-246 172 -487 253 -717 112 -321 134 -382 188 -535 28 -80 69 -194 90 -255 21
-60 43 -122 48 -136 l11 -27 163 -1 c156 -1 279 -6 453 -16 44 -2 125 -7 180
-10 55 -3 118 -8 141 -11 23 -2 79 -6 125 -9 46 -3 99 -8 118 -10 18 -3 63 -8
100 -10 115 -9 185 -15 231 -21 65 -7 117 -12 185 -19 61 -6 103 -10 185 -19
25 -3 70 -8 100 -11 30 -3 66 -7 80 -10 14 -2 54 -6 90 -9 36 -4 83 -8 105
-11 78 -9 140 -16 175 -21 19 -2 53 -6 75 -9 22 -2 67 -7 100 -10 61 -6 79 -9
150 -20 22 -3 56 -7 75 -9 19 -2 56 -7 83 -11 l47 -7 0 7256 0 7256 -1432 -2
-1432 -3 -2 -2045 c-2 -1125 -4 -2560 -4 -3190 -1 -630 -5 -1134 -10 -1120 -4
14 -67 192 -140 395 -73 204 -147 413 -165 465 -30 87 -112 316 -165 465 -25
68 -43 119 -165 465 -48 135 -95 268 -105 295 -10 28 -58 160 -105 295 -103
290 -228 642 -295 830 -95 265 -152 425 -154 435 -2 6 -6 17 -9 25 -4 8 -31
85 -61 170 -51 147 -199 563 -253 715 -14 39 -47 131 -73 205 -27 74 -67 187
-90 250 -22 63 -54 153 -70 200 -16 47 -43 123 -60 170 -18 47 -35 96 -40 110
-11 34 -160 455 -217 610 -25 69 -46 130 -48 135 -1 6 -5 17 -8 25 -4 8 -13
33 -20 55 l-14 40 -1433 3 -1433 2 7 -4257z"/>
</g>
</svg>
